<?xml version="1.0" standalone="no"?>
<!DOCTYPE svg PUBLIC "-//W3C//DTD SVG 20010904//EN"
 "http://www.w3.org/TR/2001/REC-SVG-20010904/DTD/svg10.dtd">
<svg version="1.0" xmlns="http://www.w3.org/2000/svg"
 width="512.000000pt" height="512.000000pt" viewBox="0 0 512.000000 512.000000"
 preserveAspectRatio="xMidYMid meet">

<g transform="translate(0.000000,512.000000) scale(0.100000,-0.100000)"
fill="#259" stroke="none">
<path d="M880 5113 c-193 -19 -343 -77 -501 -194 -199 -147 -333 -381 -368
-642 -15 -111 -15 -3309 0 -3432 49 -400 326 -710 732 -818 l82 -22 1735 0
1735 0 82 22 c407 109 683 418 733 823 6 55 10 648 10 1720 0 1368 -2 1651
-14 1730 -35 232 -151 440 -326 587 -149 125 -325 201 -512 222 -66 8 -614 10
-1725 9 -895 0 -1644 -3 -1663 -5z m392 -972 c98 -25 161 -58 226 -116 64 -57
119 -164 128 -247 l7 -58 -152 0 -151 0 0 30 c0 47 -36 107 -82 137 -36 24
-52 28 -137 31 -85 3 -101 1 -141 -20 -57 -29 -90 -78 -90 -133 0 -88 68 -138
285 -210 235 -77 365 -166 427 -293 31 -62 33 -74 33 -167 0 -87 -3 -107 -27
-157 -71 -153 -244 -238 -483 -238 -185 0 -338 54 -447 158 -75 71 -118 156
-125 246 l-6 66 146 0 146 0 6 -37 c22 -136 106 -197 275 -197 143 0 220 53
220 154 0 102 -56 149 -263 219 -261 90 -387 173 -449 299 -30 60 -33 75 -33
157 0 78 4 97 28 147 55 112 180 201 327 232 97 21 242 20 332 -3z m1263 4
c82 -21 171 -65 223 -108 180 -152 258 -391 232 -718 -16 -191 -74 -337 -182
-453 -27 -27 -48 -51 -48 -53 0 -1 50 -41 110 -88 61 -48 110 -91 110 -95 0
-15 -174 -161 -186 -156 -7 3 -76 56 -154 117 l-140 113 -93 -3 c-172 -5 -319
51 -433 164 -143 143 -202 333 -191 619 9 234 67 389 196 516 72 71 160 121
257 144 80 19 226 20 299 1z m965 -595 l0 -590 310 0 310 0 0 -120 0 -120
-460 0 -460 0 0 710 0 710 150 0 150 0 0 -590z m-2685 -1477 c4 -10 65 -182
136 -382 71 -201 131 -366 133 -368 2 -2 25 58 52 134 26 76 87 248 135 383
l86 245 152 3 151 3 0 -541 0 -540 -117 0 -116 0 7 328 c3 180 9 356 11 392 6
79 19 109 -148 -350 l-132 -365 -80 -3 -80 -3 -143 393 -143 393 5 -80 c3 -44
9 -221 13 -392 l6 -313 -116 0 -117 0 0 540 0 540 149 0 c132 0 150 -2 156
-17z m1740 -460 c98 -263 189 -506 202 -541 l23 -63 -122 3 -122 3 -35 108
-35 107 -195 -2 -195 -3 -35 -107 -35 -108 -122 0 -121 0 201 540 201 540 106
0 106 0 178 -477z m1045 387 l0 -90 -165 0 -165 0 0 -450 0 -450 -115 0 -115
0 0 450 0 450 -160 0 -160 0 0 90 0 90 440 0 440 0 0 -90z m350 -130 l0 -220
215 0 215 0 0 220 0 220 115 0 115 0 0 -540 0 -540 -115 0 -115 0 0 230 0 230
-215 0 -215 0 0 -230 0 -230 -115 0 -115 0 0 540 0 540 115 0 115 0 0 -220z"/>
<path d="M2339 3909 c-122 -19 -193 -93 -236 -244 -22 -80 -28 -305 -10 -407
37 -212 133 -313 297 -312 161 1 251 91 290 291 8 38 11 121 8 229 -5 191 -22
261 -83 345 -56 77 -159 115 -266 98z"/>
<path d="M2266 1790 c-7 -18 -126 -373 -126 -377 0 -2 59 -3 130 -3 72 0 130
3 130 8 0 26 -129 384 -134 372z"/>
</g>
</svg>
