<?xml version="1.0" standalone="no"?>
<!DOCTYPE svg PUBLIC "-//W3C//DTD SVG 20010904//EN"
 "http://www.w3.org/TR/2001/REC-SVG-20010904/DTD/svg10.dtd">
<svg version="1.0" xmlns="http://www.w3.org/2000/svg"
 width="256.000000pt" height="256.000000pt" viewBox="0 0 256.000000 256.000000"
 preserveAspectRatio="xMidYMid meet">

<g transform="translate(0.000000,256.000000) scale(0.100000,-0.100000)"
fill="#259" stroke="none">
<path d="M380 2546 c-163 -36 -291 -149 -352 -312 l-23 -59 -3 -855 c-2 -598
0 -875 8 -920 23 -132 110 -260 222 -327 29 -18 89 -42 132 -53 76 -19 109
-20 916 -20 807 0 840 1 916 20 43 11 103 35 132 53 112 67 199 195 222 327 8
45 10 322 8 920 l-3 855 -23 59 c-63 167 -199 284 -367 315 -87 16 -1711 13
-1785 -3z m319 -501 c62 -34 100 -85 108 -144 l6 -41 -77 0 c-69 0 -76 2 -76
19 0 11 -10 32 -23 47 -46 53 -178 39 -193 -20 -14 -58 16 -86 143 -130 105
-38 168 -79 199 -133 23 -37 26 -53 22 -107 -5 -78 -35 -123 -104 -157 -57
-27 -171 -37 -242 -19 -104 25 -186 105 -194 190 l-3 35 73 3 c53 2 73 -1 76
-10 17 -62 24 -74 56 -91 25 -13 51 -17 92 -14 70 4 98 25 98 74 0 45 -31 73
-117 102 -189 66 -253 125 -253 231 0 84 46 144 136 180 76 31 201 24 273 -15z
m616 11 c66 -30 127 -98 155 -172 19 -48 23 -79 23 -169 0 -128 -22 -202 -79
-265 -19 -21 -34 -40 -34 -43 0 -2 25 -24 56 -47 l56 -42 -24 -25 c-12 -14
-34 -33 -48 -43 l-25 -18 -74 59 c-70 56 -76 59 -130 59 -189 0 -301 136 -301
366 0 182 69 304 197 350 63 22 170 18 228 -10z m435 -276 l0 -300 155 0 155
0 0 -60 0 -60 -230 0 -230 0 0 360 0 360 75 0 75 0 0 -300z m-1280 -925 c35
-102 67 -185 70 -185 3 0 35 83 70 185 l65 185 78 0 77 0 0 -270 0 -270 -62 0
-61 0 5 188 c4 103 4 183 2 177 -3 -5 -33 -89 -68 -185 l-64 -175 -42 0 -43 0
-63 175 c-35 96 -66 180 -68 185 -3 6 -2 -74 1 -177 l6 -188 -61 0 -62 0 0
270 0 270 78 0 77 0 65 -185z m725 168 c4 -10 46 -124 95 -253 49 -129 92
-243 95 -253 7 -16 2 -18 -55 -15 l-63 3 -17 50 -17 50 -95 3 -95 3 -20 -53
-20 -53 -61 -3 -62 -3 31 83 c17 46 59 160 94 253 35 94 66 178 70 188 6 13
19 17 60 17 41 0 54 -4 60 -17z m605 -28 l0 -45 -80 0 -80 0 0 -225 0 -225
-60 0 -60 0 0 225 0 225 -80 0 -80 0 0 45 0 45 220 0 220 0 0 -45z m180 -65
l0 -110 105 0 105 0 0 110 0 110 60 0 60 0 0 -270 0 -270 -60 0 -60 0 0 115 0
115 -105 0 -105 0 0 -115 0 -115 -60 0 -60 0 0 270 0 270 60 0 60 0 0 -110z"/>
<path d="M1134 1946 c-69 -31 -99 -115 -92 -259 7 -147 51 -210 148 -211 56
-1 93 22 125 75 17 29 20 52 20 164 0 112 -3 135 -20 164 -40 68 -117 96 -181
67z"/>
<path d="M1103 798 l-29 -93 59 -3 c33 -2 61 -1 63 1 4 4 -52 177 -60 185 -3
2 -18 -38 -33 -90z"/>
</g>
</svg>
