<?xml version="1.0" standalone="no"?>
<!DOCTYPE svg PUBLIC "-//W3C//DTD SVG 20010904//EN"
 "http://www.w3.org/TR/2001/REC-SVG-20010904/DTD/svg10.dtd">
<svg version="1.0" xmlns="http://www.w3.org/2000/svg"
 width="512.000000pt" height="512.000000pt" viewBox="0 0 512.000000 512.000000"
 preserveAspectRatio="xMidYMid meet">

<g transform="translate(0.000000,512.000000) scale(0.100000,-0.100000)"
fill="#258" stroke="none">
<path d="M880 5113 c-193 -19 -343 -77 -501 -194 -199 -147 -333 -381 -368
-642 -15 -111 -15 -3309 0 -3432 49 -400 326 -710 732 -818 l82 -22 1735 0
1735 0 82 22 c407 109 683 418 733 823 6 55 10 648 10 1720 0 1368 -2 1651
-14 1730 -35 232 -151 440 -326 587 -149 125 -325 201 -512 222 -66 8 -614 10
-1725 9 -895 0 -1644 -3 -1663 -5z m469 -988 c36 -9 93 -30 128 -46 63 -32
143 -93 143 -110 0 -8 -101 -141 -130 -173 -5 -4 -35 8 -67 28 -132 81 -291
84 -350 7 -7 -9 -13 -35 -13 -57 0 -59 26 -80 176 -143 222 -93 268 -117 321
-165 60 -55 90 -110 104 -196 26 -162 -60 -326 -212 -402 -92 -46 -169 -61
-294 -56 -136 6 -245 40 -349 108 -109 71 -108 63 -19 173 43 53 82 96 86 97
5 0 23 -11 40 -24 51 -39 159 -86 225 -98 116 -21 213 19 227 95 15 76 -30
110 -303 225 -160 69 -235 133 -279 244 -22 53 -25 73 -21 142 3 56 12 96 28
129 49 104 156 187 281 221 71 19 198 19 278 1z m1200 0 c145 -34 285 -144
350 -273 62 -123 76 -191 76 -372 0 -187 -11 -246 -72 -370 -50 -103 -151
-205 -250 -251 l-73 -34 32 -32 c54 -56 119 -77 233 -78 55 0 112 3 126 7 26
8 26 7 52 -100 18 -78 22 -109 14 -114 -28 -19 -89 -30 -183 -35 -121 -7 -221
12 -316 59 -75 38 -201 158 -243 234 -26 46 -34 53 -84 69 -172 53 -305 201
-363 400 -20 70 -23 102 -23 245 1 127 5 180 19 229 58 210 212 369 402 415
78 19 224 19 303 1z m969 -532 l2 -523 250 0 250 0 0 -120 0 -120 -400 0 -400
0 0 645 0 646 148 -3 147 -3 3 -522z m-2549 -1550 c29 -74 179 -496 196 -550
10 -35 21 -63 25 -63 4 0 14 26 23 58 9 31 58 175 109 319 l93 263 128 0 127
0 0 -520 0 -520 -105 0 -105 0 0 235 c0 129 5 279 11 334 6 55 9 108 7 118 -2
10 -21 -31 -41 -92 -20 -60 -70 -198 -111 -305 l-73 -195 -69 0 -68 0 -58 150
c-32 83 -82 217 -111 299 -28 82 -54 142 -55 132 -2 -9 1 -62 7 -117 6 -55 11
-203 11 -329 l0 -230 -105 0 -105 0 0 520 0 520 129 0 129 0 11 -27z m1586
-488 c89 -280 159 -514 155 -518 -4 -4 -60 -6 -126 -5 l-119 3 -21 80 c-12 44
-27 99 -33 123 l-12 43 -157 -3 -157 -3 -31 -120 -30 -120 -123 -3 c-114 -2
-123 -1 -119 15 3 10 77 244 164 521 l159 503 144 -3 145 -3 161 -510z m885
415 l0 -100 -145 0 -145 0 0 -420 0 -420 -120 0 -120 0 0 420 0 420 -140 0
-140 0 0 100 0 100 405 0 405 0 0 -100z m400 -100 l0 -200 175 0 175 0 0 200
0 200 120 0 120 0 0 -520 0 -520 -120 0 -120 0 0 215 0 215 -175 0 -175 0 0
-215 0 -215 -120 0 -120 0 0 520 0 520 120 0 120 0 0 -200z"/>
<path d="M2320 3875 c-92 -30 -164 -124 -190 -252 -16 -76 -8 -292 14 -360 22
-70 72 -141 124 -178 41 -28 50 -30 132 -30 82 0 91 2 132 30 53 38 103 110
126 184 13 43 17 91 17 211 -1 138 -3 161 -24 213 -47 120 -125 184 -232 192
-32 3 -72 -1 -99 -10z"/>
<path d="M2192 1683 c-29 -115 -52 -212 -52 -216 0 -4 47 -7 105 -7 58 0 105
3 105 8 0 4 -24 101 -53 216 l-53 209 -52 -210z"/>
</g>
</svg>
